<svg width="13" height="17" viewBox="0 0 13 17" fill="none" xmlns="http://www.w3.org/2000/svg">
<path d="M10.8317 6.37766C11.0385 6.37766 11.2172 6.375 11.3953 6.37819C12.2809 6.39359 12.9934 7.08504 12.9955 7.95706C13.0015 10.4435 13.0015 12.93 12.9955 15.4165C12.9934 16.3002 12.2723 16.9975 11.372 16.998C8.12436 17.0007 4.87673 17.0007 1.62909 16.998C0.728809 16.9975 0.00663169 16.2997 0.00446624 15.4175C-0.00148875 12.9311 -0.00148875 10.4446 0.00446624 7.95812C0.00663169 7.08717 0.719064 6.39412 1.60419 6.37819C1.7823 6.375 1.96095 6.37766 2.16883 6.37766C2.16883 5.6469 2.14555 4.94058 2.17749 4.23691C2.19644 3.81736 2.25383 3.3872 2.37834 2.9873C2.97059 1.08978 4.79336 -0.11734 6.82455 0.00905471C8.73772 0.128015 10.3981 1.58368 10.7602 3.47057C10.8084 3.72124 10.8258 3.97987 10.829 4.23532C10.8377 4.9342 10.8317 5.63309 10.8317 6.37766ZM3.56067 6.35907C5.56047 6.35907 7.45956 6.35907 9.37544 6.35907C9.37544 5.58211 9.40468 4.82162 9.36895 4.06378C9.30615 2.71486 8.20827 1.5874 6.86461 1.44454C5.41863 1.29053 4.04303 2.11156 3.75773 3.46951C3.5623 4.39942 3.6186 5.37977 3.56067 6.35907Z" fill="#E37C2B"/>
</svg>
