<svg width="421" height="73" viewBox="0 0 421 73" fill="none" xmlns="http://www.w3.org/2000/svg">
<path d="M5.054 17.112C4.12067 17.112 3.318 16.8833 2.646 16.426C1.974 15.9687 1.46067 15.3573 1.106 14.592C0.760667 13.8173 0.588 12.9727 0.588 12.058C0.588 11.134 0.760667 10.2893 1.106 9.524C1.46067 8.75867 1.974 8.14733 2.646 7.69C3.318 7.23267 4.12067 7.004 5.054 7.004C6.19267 7.004 7.126 7.33067 7.854 7.984C8.582 8.63733 9.058 9.496 9.282 10.56H7.406C7.27533 10.0187 7 9.57533 6.58 9.23C6.16933 8.87533 5.67 8.698 5.082 8.698C4.27 8.698 3.654 9.006 3.234 9.622C2.814 10.238 2.604 11.05 2.604 12.058C2.604 13.066 2.814 13.878 3.234 14.494C3.654 15.11 4.27 15.418 5.082 15.418C5.66067 15.418 6.146 15.2547 6.538 14.928C6.93 14.592 7.20067 14.1767 7.35 13.682H9.226C9.002 14.69 8.53067 15.516 7.812 16.16C7.09333 16.7947 6.174 17.112 5.054 17.112ZM10.5871 6.598H12.5471V10.742H12.6451C12.8131 10.378 13.0837 10.07 13.4571 9.818C13.8304 9.55667 14.2831 9.426 14.8151 9.426C15.7764 9.426 16.4531 9.734 16.8451 10.35C17.2464 10.966 17.4471 11.666 17.4471 12.45V17H15.5151V12.772C15.5151 12.2307 15.3844 11.806 15.1231 11.498C14.8711 11.19 14.5071 11.036 14.0311 11.036C13.5644 11.036 13.2004 11.1947 12.9391 11.512C12.6777 11.8293 12.5471 12.2493 12.5471 12.772V17H10.5871V6.598ZM25.7153 17H23.7693V15.824H23.6713C23.5033 16.188 23.2373 16.5007 22.8733 16.762C22.5186 17.014 22.0799 17.14 21.5573 17.14C20.6146 17.14 19.9519 16.832 19.5693 16.216C19.1866 15.5907 18.9953 14.8907 18.9953 14.116V9.608H20.9273V13.794C20.9273 14.326 21.0486 14.7507 21.2913 15.068C21.5339 15.376 21.8793 15.53 22.3273 15.53C22.8126 15.53 23.1719 15.3667 23.4053 15.04C23.6479 14.7133 23.7693 14.298 23.7693 13.794V9.608H25.7153V17ZM21.4873 8.544L22.9013 5.814H24.8193L23.0273 8.558L21.4873 8.544ZM33.2653 11.12V14.41C33.2653 14.7367 33.2793 14.9793 33.3073 15.138C33.3446 15.2967 33.438 15.4227 33.5873 15.516C33.7366 15.6093 33.9793 15.656 34.3153 15.656C34.5113 15.656 34.712 15.6373 34.9173 15.6V16.944C34.8146 16.9627 34.628 16.986 34.3573 17.014C34.096 17.042 33.8393 17.056 33.5873 17.056C32.906 17.056 32.3973 16.958 32.0613 16.762C31.7346 16.5567 31.5293 16.3047 31.4453 16.006C31.3613 15.698 31.3193 15.306 31.3193 14.83V11.12H30.0873V9.608H31.3333V7.2H33.2653V9.608H34.9173V11.12H33.2653ZM36.4269 6.598H38.3869V10.742H38.4849C38.6529 10.378 38.9236 10.07 39.2969 9.818C39.6702 9.55667 40.1229 9.426 40.6549 9.426C41.6162 9.426 42.2929 9.734 42.6849 10.35C43.0862 10.966 43.2869 11.666 43.2869 12.45V17H41.3549V12.772C41.3549 12.2307 41.2242 11.806 40.9629 11.498C40.7109 11.19 40.3469 11.036 39.8709 11.036C39.4042 11.036 39.0402 11.1947 38.7789 11.512C38.5176 11.8293 38.3869 12.2493 38.3869 12.772V17H36.4269V6.598ZM45.0591 9.608H46.9911V17H45.0591V9.608ZM45.2831 8.544L46.6971 5.814H48.6151L46.8231 8.558L45.2831 8.544ZM52.1316 17.126C51.3476 17.126 50.6896 16.944 50.1576 16.58C49.6256 16.216 49.229 15.74 48.9676 15.152C48.7156 14.564 48.5896 13.934 48.5896 13.262C48.5896 12.5993 48.7156 11.9787 48.9676 11.4C49.229 10.812 49.6256 10.336 50.1576 9.972C50.6896 9.608 51.3476 9.426 52.1316 9.426C53.121 9.426 53.9003 9.71067 54.4696 10.28C55.0483 10.84 55.3983 11.5493 55.5196 12.408H53.6296C53.5643 11.988 53.4056 11.652 53.1536 11.4C52.911 11.1387 52.575 11.008 52.1456 11.008C51.5763 11.008 51.1563 11.2273 50.8856 11.666C50.6243 12.1047 50.4936 12.6367 50.4936 13.262C50.4936 13.906 50.6243 14.4473 50.8856 14.886C51.1563 15.3247 51.5763 15.544 52.1456 15.544C52.5656 15.544 52.9016 15.418 53.1536 15.166C53.4056 14.9047 53.5643 14.564 53.6296 14.144H55.5196C55.3983 15.0027 55.0483 15.7167 54.4696 16.286C53.9003 16.846 53.121 17.126 52.1316 17.126ZM56.839 6.598H58.799V10.742H58.897C59.065 10.378 59.3357 10.07 59.709 9.818C60.0823 9.55667 60.535 9.426 61.067 9.426C62.0283 9.426 62.705 9.734 63.097 10.35C63.4983 10.966 63.699 11.666 63.699 12.45V17H61.767V12.772C61.767 12.2307 61.6363 11.806 61.375 11.498C61.123 11.19 60.759 11.036 60.283 11.036C59.8163 11.036 59.4523 11.1947 59.191 11.512C58.9297 11.8293 58.799 12.2493 58.799 12.772V17H56.839V6.598Z" fill="#525557"/>
<rect x="94.25" y="0.25" width="23.5" height="18.5" rx="1.75" fill="#43AEE0" stroke="#525557" stroke-width="0.5"/>
<path d="M134.876 7.1H135.908V10.82H135.968L139.304 7.1H140.564L137.252 10.712L140.816 15.5H139.604L136.616 11.468L135.908 12.224V15.5H134.876V7.1ZM144.572 15.584C143.924 15.584 143.376 15.428 142.928 15.116C142.488 14.804 142.16 14.396 141.944 13.892C141.728 13.388 141.62 12.856 141.62 12.296C141.62 11.728 141.728 11.196 141.944 10.7C142.16 10.196 142.492 9.788 142.94 9.476C143.388 9.164 143.936 9.008 144.584 9.008C145.432 9.008 146.108 9.292 146.612 9.86C147.124 10.428 147.38 11.244 147.38 12.308V12.596H142.652V12.68C142.652 13.032 142.732 13.364 142.892 13.676C143.052 13.988 143.276 14.24 143.564 14.432C143.852 14.624 144.184 14.72 144.56 14.72C144.968 14.72 145.32 14.616 145.616 14.408C145.912 14.2 146.132 13.92 146.276 13.568H147.296C147.128 14.144 146.812 14.624 146.348 15.008C145.892 15.392 145.3 15.584 144.572 15.584ZM146.36 11.864C146.328 11.144 146.152 10.624 145.832 10.304C145.512 9.984 145.092 9.824 144.572 9.824C144.004 9.824 143.552 10.012 143.216 10.388C142.88 10.764 142.7 11.256 142.676 11.864H146.36ZM144.596 18.176C144.404 18.176 144.244 18.108 144.116 17.972C143.988 17.844 143.924 17.688 143.924 17.504C143.924 17.32 143.988 17.16 144.116 17.024C144.244 16.896 144.404 16.832 144.596 16.832C144.788 16.832 144.948 16.896 145.076 17.024C145.204 17.16 145.268 17.32 145.268 17.504C145.268 17.688 145.204 17.844 145.076 17.972C144.948 18.108 144.788 18.176 144.596 18.176ZM144.14 6.632H145.04L146.612 8.384H145.58L144.608 7.304H144.56L143.588 8.384H142.568L144.14 6.632ZM158.186 8.204H157.298V15.5H156.266V14.204H156.17C155.978 14.588 155.706 14.916 155.354 15.188C155.01 15.452 154.562 15.584 154.01 15.584C153.45 15.584 152.97 15.44 152.57 15.152C152.178 14.864 151.878 14.472 151.67 13.976C151.462 13.48 151.358 12.92 151.358 12.296C151.358 11.664 151.462 11.1 151.67 10.604C151.878 10.108 152.182 9.72 152.582 9.44C152.982 9.152 153.466 9.008 154.034 9.008C154.594 9.008 155.046 9.144 155.39 9.416C155.742 9.68 156.002 9.992 156.17 10.352H156.266V8.204H154.43V7.484H156.266V6.5H157.298V7.484H158.186V8.204ZM154.322 14.696C154.946 14.696 155.422 14.468 155.75 14.012C156.078 13.548 156.242 12.976 156.242 12.296C156.242 11.616 156.078 11.048 155.75 10.592C155.422 10.136 154.946 9.908 154.322 9.908C153.69 9.908 153.214 10.136 152.894 10.592C152.574 11.048 152.414 11.616 152.414 12.296C152.414 12.984 152.574 13.556 152.894 14.012C153.222 14.468 153.698 14.696 154.322 14.696ZM161.45 15.584C160.89 15.584 160.41 15.44 160.01 15.152C159.618 14.864 159.318 14.472 159.11 13.976C158.902 13.48 158.798 12.92 158.798 12.296C158.798 11.672 158.902 11.112 159.11 10.616C159.326 10.112 159.634 9.72 160.034 9.44C160.442 9.152 160.926 9.008 161.486 9.008C162.046 9.008 162.498 9.14 162.842 9.404C163.186 9.668 163.446 9.984 163.622 10.352H163.706V9.176H164.75V15.5H163.706V14.204H163.622C163.43 14.58 163.158 14.904 162.806 15.176C162.454 15.448 162.002 15.584 161.45 15.584ZM161.774 14.696C162.39 14.696 162.862 14.468 163.19 14.012C163.518 13.548 163.682 12.976 163.682 12.296C163.682 11.616 163.518 11.048 163.19 10.592C162.862 10.128 162.39 9.896 161.774 9.896C161.142 9.896 160.662 10.124 160.334 10.58C160.014 11.036 159.854 11.604 159.854 12.284C159.854 12.972 160.014 13.548 160.334 14.012C160.662 14.468 161.142 14.696 161.774 14.696ZM166.576 9.176H167.608V10.316H167.704C167.864 9.948 168.124 9.64 168.484 9.392C168.844 9.136 169.284 9.008 169.804 9.008C170.34 9.008 170.788 9.136 171.148 9.392C171.508 9.64 171.772 9.972 171.94 10.388C172.116 10.796 172.204 11.24 172.204 11.72V15.5H171.172V11.852C171.172 11.228 171.008 10.752 170.68 10.424C170.36 10.096 169.94 9.932 169.42 9.932C168.868 9.932 168.428 10.112 168.1 10.472C167.772 10.824 167.608 11.284 167.608 11.852V15.5H166.576V9.176ZM176.791 18.032C176.551 18.032 176.355 18.016 176.203 17.984C176.059 17.952 175.911 17.908 175.759 17.852V16.988C175.863 17.02 176.003 17.048 176.179 17.072C176.355 17.104 176.527 17.12 176.695 17.12C177.319 17.12 177.787 16.944 178.099 16.592C178.419 16.24 178.579 15.772 178.579 15.188V14.048H178.483C178.315 14.424 178.043 14.744 177.667 15.008C177.299 15.264 176.851 15.392 176.323 15.392C175.795 15.392 175.331 15.256 174.931 14.984C174.531 14.712 174.219 14.336 173.995 13.856C173.779 13.368 173.671 12.812 173.671 12.188C173.671 11.564 173.779 11.012 173.995 10.532C174.219 10.044 174.531 9.664 174.931 9.392C175.331 9.12 175.795 8.984 176.323 8.984C176.875 8.984 177.335 9.128 177.703 9.416C178.079 9.696 178.343 10.024 178.495 10.4H178.579V9.188H179.623V15.188C179.623 15.636 179.531 16.076 179.347 16.508C179.171 16.94 178.871 17.3 178.447 17.588C178.023 17.884 177.471 18.032 176.791 18.032ZM176.659 14.504C177.067 14.504 177.415 14.396 177.703 14.18C177.991 13.956 178.203 13.668 178.339 13.316C178.483 12.956 178.555 12.572 178.555 12.164C178.555 11.764 178.483 11.392 178.339 11.048C178.203 10.704 177.991 10.424 177.703 10.208C177.423 9.992 177.075 9.884 176.659 9.884C176.043 9.884 175.571 10.108 175.243 10.556C174.923 10.996 174.763 11.532 174.763 12.164C174.763 12.58 174.831 12.968 174.967 13.328C175.111 13.68 175.323 13.964 175.603 14.18C175.891 14.396 176.243 14.504 176.659 14.504ZM186.889 15.584C186.233 15.584 185.677 15.428 185.221 15.116C184.773 14.804 184.441 14.4 184.225 13.904C184.009 13.4 183.901 12.864 183.901 12.296C183.901 11.728 184.009 11.196 184.225 10.7C184.441 10.196 184.773 9.788 185.221 9.476C185.677 9.164 186.233 9.008 186.889 9.008C187.705 9.008 188.345 9.244 188.809 9.716C189.281 10.188 189.565 10.768 189.661 11.456H188.653C188.581 10.992 188.397 10.616 188.101 10.328C187.805 10.032 187.405 9.884 186.901 9.884C186.261 9.884 185.773 10.116 185.437 10.58C185.109 11.036 184.945 11.608 184.945 12.296C184.945 12.984 185.109 13.56 185.437 14.024C185.773 14.48 186.261 14.708 186.901 14.708C187.405 14.708 187.805 14.564 188.101 14.276C188.397 13.988 188.581 13.608 188.653 13.136H189.661C189.565 13.824 189.281 14.404 188.809 14.876C188.345 15.348 187.705 15.584 186.889 15.584ZM191.103 6.536H192.135V10.316H192.231C192.391 9.948 192.651 9.64 193.011 9.392C193.371 9.136 193.811 9.008 194.331 9.008C194.867 9.008 195.315 9.136 195.675 9.392C196.035 9.64 196.299 9.972 196.467 10.388C196.643 10.796 196.731 11.24 196.731 11.72V15.5H195.699V11.852C195.699 11.228 195.535 10.752 195.207 10.424C194.887 10.096 194.459 9.932 193.923 9.932C193.411 9.932 192.983 10.104 192.639 10.448C192.303 10.792 192.135 11.26 192.135 11.852V15.5H191.103V6.536ZM201.162 15.584C200.522 15.584 199.978 15.432 199.53 15.128C199.09 14.816 198.758 14.412 198.534 13.916C198.31 13.412 198.198 12.872 198.198 12.296C198.198 11.72 198.31 11.184 198.534 10.688C198.758 10.184 199.09 9.78 199.53 9.476C199.978 9.164 200.522 9.008 201.162 9.008C201.802 9.008 202.342 9.164 202.782 9.476C203.23 9.78 203.562 10.184 203.778 10.688C204.002 11.192 204.114 11.728 204.114 12.296C204.114 12.864 204.002 13.4 203.778 13.904C203.554 14.408 203.218 14.816 202.77 15.128C202.33 15.432 201.794 15.584 201.162 15.584ZM201.162 14.696C201.554 14.696 201.894 14.588 202.182 14.372C202.478 14.156 202.702 13.868 202.854 13.508C203.006 13.14 203.082 12.732 203.082 12.284C203.082 11.596 202.91 11.024 202.566 10.568C202.222 10.112 201.754 9.884 201.162 9.884C200.762 9.884 200.414 9.992 200.118 10.208C199.83 10.424 199.61 10.716 199.458 11.084C199.306 11.444 199.23 11.844 199.23 12.284C199.23 12.972 199.402 13.548 199.746 14.012C200.09 14.468 200.562 14.696 201.162 14.696ZM201.174 18.176C200.982 18.176 200.822 18.108 200.694 17.972C200.566 17.844 200.502 17.688 200.502 17.504C200.502 17.32 200.566 17.16 200.694 17.024C200.822 16.896 200.982 16.832 201.174 16.832C201.366 16.832 201.526 16.896 201.654 17.024C201.782 17.16 201.846 17.32 201.846 17.504C201.846 17.688 201.782 17.844 201.654 17.972C201.526 18.108 201.366 18.176 201.174 18.176ZM205.623 9.176H206.655V10.316H206.751C206.911 9.948 207.171 9.64 207.531 9.392C207.891 9.136 208.331 9.008 208.851 9.008C209.387 9.008 209.835 9.136 210.195 9.392C210.555 9.64 210.819 9.972 210.987 10.388C211.163 10.796 211.251 11.24 211.251 11.72V15.5H210.219V11.852C210.219 11.228 210.055 10.752 209.727 10.424C209.407 10.096 208.987 9.932 208.467 9.932C207.915 9.932 207.475 10.112 207.147 10.472C206.819 10.824 206.655 11.284 206.655 11.852V15.5H205.623V9.176Z" fill="#525557"/>
<rect x="94.25" y="27.25" width="23.5" height="18.5" rx="1.75" fill="white" stroke="#525557" stroke-width="0.5"/>
<path d="M134.876 34.1H135.908V37.82H135.968L139.304 34.1H140.564L137.252 37.712L140.816 42.5H139.604L136.616 38.468L135.908 39.224V42.5H134.876V34.1ZM144.572 42.584C143.924 42.584 143.376 42.428 142.928 42.116C142.488 41.804 142.16 41.396 141.944 40.892C141.728 40.388 141.62 39.856 141.62 39.296C141.62 38.728 141.728 38.196 141.944 37.7C142.16 37.196 142.492 36.788 142.94 36.476C143.388 36.164 143.936 36.008 144.584 36.008C145.432 36.008 146.108 36.292 146.612 36.86C147.124 37.428 147.38 38.244 147.38 39.308V39.596H142.652V39.68C142.652 40.032 142.732 40.364 142.892 40.676C143.052 40.988 143.276 41.24 143.564 41.432C143.852 41.624 144.184 41.72 144.56 41.72C144.968 41.72 145.32 41.616 145.616 41.408C145.912 41.2 146.132 40.92 146.276 40.568H147.296C147.128 41.144 146.812 41.624 146.348 42.008C145.892 42.392 145.3 42.584 144.572 42.584ZM146.36 38.864C146.328 38.144 146.152 37.624 145.832 37.304C145.512 36.984 145.092 36.824 144.572 36.824C144.004 36.824 143.552 37.012 143.216 37.388C142.88 37.764 142.7 38.256 142.676 38.864H146.36ZM144.596 45.176C144.404 45.176 144.244 45.108 144.116 44.972C143.988 44.844 143.924 44.688 143.924 44.504C143.924 44.32 143.988 44.16 144.116 44.024C144.244 43.896 144.404 43.832 144.596 43.832C144.788 43.832 144.948 43.896 145.076 44.024C145.204 44.16 145.268 44.32 145.268 44.504C145.268 44.688 145.204 44.844 145.076 44.972C144.948 45.108 144.788 45.176 144.596 45.176ZM144.14 33.632H145.04L146.612 35.384H145.58L144.608 34.304H144.56L143.588 35.384H142.568L144.14 33.632ZM153.362 37.004V40.676C153.362 40.972 153.374 41.192 153.398 41.336C153.43 41.472 153.506 41.58 153.626 41.66C153.754 41.74 153.958 41.78 154.238 41.78C154.43 41.78 154.638 41.752 154.862 41.696V42.44C154.806 42.464 154.682 42.488 154.49 42.512C154.306 42.536 154.114 42.548 153.914 42.548C153.45 42.548 153.102 42.484 152.87 42.356C152.646 42.22 152.498 42.04 152.426 41.816C152.362 41.584 152.33 41.28 152.33 40.904V37.004H151.154V36.176H152.33V34.1H153.362V36.176H154.862V37.004H153.362ZM156.332 36.176H157.364V37.184H157.436C157.54 36.904 157.724 36.668 157.988 36.476C158.26 36.276 158.6 36.176 159.008 36.176C159.136 36.176 159.236 36.184 159.308 36.2C159.388 36.208 159.476 36.228 159.572 36.26L159.536 37.268C159.408 37.228 159.296 37.2 159.2 37.184C159.112 37.168 158.996 37.16 158.852 37.16C157.86 37.16 157.364 37.748 157.364 38.924V42.5H156.332V36.176ZM163.205 42.584C162.565 42.584 162.021 42.432 161.573 42.128C161.133 41.816 160.801 41.412 160.577 40.916C160.353 40.412 160.241 39.872 160.241 39.296C160.241 38.72 160.353 38.184 160.577 37.688C160.801 37.184 161.133 36.78 161.573 36.476C162.021 36.164 162.565 36.008 163.205 36.008C163.845 36.008 164.385 36.164 164.825 36.476C165.273 36.78 165.605 37.184 165.821 37.688C166.045 38.192 166.157 38.728 166.157 39.296C166.157 39.864 166.045 40.4 165.821 40.904C165.597 41.408 165.261 41.816 164.813 42.128C164.373 42.432 163.837 42.584 163.205 42.584ZM163.205 41.696C163.597 41.696 163.937 41.588 164.225 41.372C164.521 41.156 164.745 40.868 164.897 40.508C165.049 40.14 165.125 39.732 165.125 39.284C165.125 38.596 164.953 38.024 164.609 37.568C164.265 37.112 163.797 36.884 163.205 36.884C162.805 36.884 162.457 36.992 162.161 37.208C161.873 37.424 161.653 37.716 161.501 38.084C161.349 38.444 161.273 38.844 161.273 39.284C161.273 39.972 161.445 40.548 161.789 41.012C162.133 41.468 162.605 41.696 163.205 41.696ZM162.761 33.632H163.661L165.233 35.384H164.201L163.229 34.304H163.181L162.209 35.384H161.189L162.761 33.632ZM164.657 33.884L165.833 31.736H166.937L165.485 33.884H164.657ZM167.666 36.176H168.698V37.316H168.794C168.954 36.948 169.214 36.64 169.574 36.392C169.934 36.136 170.374 36.008 170.894 36.008C171.43 36.008 171.878 36.136 172.238 36.392C172.598 36.64 172.862 36.972 173.03 37.388C173.206 37.796 173.294 38.24 173.294 38.72V42.5H172.262V38.852C172.262 38.228 172.098 37.752 171.77 37.424C171.45 37.096 171.03 36.932 170.51 36.932C169.958 36.932 169.518 37.112 169.19 37.472C168.862 37.824 168.698 38.284 168.698 38.852V42.5H167.666V36.176ZM177.88 45.032C177.64 45.032 177.444 45.016 177.292 44.984C177.148 44.952 177 44.908 176.848 44.852V43.988C176.952 44.02 177.092 44.048 177.268 44.072C177.444 44.104 177.616 44.12 177.784 44.12C178.408 44.12 178.876 43.944 179.188 43.592C179.508 43.24 179.668 42.772 179.668 42.188V41.048H179.572C179.404 41.424 179.132 41.744 178.756 42.008C178.388 42.264 177.94 42.392 177.412 42.392C176.884 42.392 176.42 42.256 176.02 41.984C175.62 41.712 175.308 41.336 175.084 40.856C174.868 40.368 174.76 39.812 174.76 39.188C174.76 38.564 174.868 38.012 175.084 37.532C175.308 37.044 175.62 36.664 176.02 36.392C176.42 36.12 176.884 35.984 177.412 35.984C177.964 35.984 178.424 36.128 178.792 36.416C179.168 36.696 179.432 37.024 179.584 37.4H179.668V36.188H180.712V42.188C180.712 42.636 180.62 43.076 180.436 43.508C180.26 43.94 179.96 44.3 179.536 44.588C179.112 44.884 178.56 45.032 177.88 45.032ZM177.748 41.504C178.156 41.504 178.504 41.396 178.792 41.18C179.08 40.956 179.292 40.668 179.428 40.316C179.572 39.956 179.644 39.572 179.644 39.164C179.644 38.764 179.572 38.392 179.428 38.048C179.292 37.704 179.08 37.424 178.792 37.208C178.512 36.992 178.164 36.884 177.748 36.884C177.132 36.884 176.66 37.108 176.332 37.556C176.012 37.996 175.852 38.532 175.852 39.164C175.852 39.58 175.92 39.968 176.056 40.328C176.2 40.68 176.412 40.964 176.692 41.18C176.98 41.396 177.332 41.504 177.748 41.504Z" fill="#525557"/>
<rect x="94.25" y="54.25" width="23.5" height="18.5" rx="1.75" fill="#DED749" stroke="#525557" stroke-width="0.5"/>
<path d="M134.876 61.1H135.908V64.82H135.968L139.304 61.1H140.564L137.252 64.712L140.816 69.5H139.604L136.616 65.468L135.908 66.224V69.5H134.876V61.1ZM144.572 69.584C143.924 69.584 143.376 69.428 142.928 69.116C142.488 68.804 142.16 68.396 141.944 67.892C141.728 67.388 141.62 66.856 141.62 66.296C141.62 65.728 141.728 65.196 141.944 64.7C142.16 64.196 142.492 63.788 142.94 63.476C143.388 63.164 143.936 63.008 144.584 63.008C145.432 63.008 146.108 63.292 146.612 63.86C147.124 64.428 147.38 65.244 147.38 66.308V66.596H142.652V66.68C142.652 67.032 142.732 67.364 142.892 67.676C143.052 67.988 143.276 68.24 143.564 68.432C143.852 68.624 144.184 68.72 144.56 68.72C144.968 68.72 145.32 68.616 145.616 68.408C145.912 68.2 146.132 67.92 146.276 67.568H147.296C147.128 68.144 146.812 68.624 146.348 69.008C145.892 69.392 145.3 69.584 144.572 69.584ZM146.36 65.864C146.328 65.144 146.152 64.624 145.832 64.304C145.512 63.984 145.092 63.824 144.572 63.824C144.004 63.824 143.552 64.012 143.216 64.388C142.88 64.764 142.7 65.256 142.676 65.864H146.36ZM144.596 72.176C144.404 72.176 144.244 72.108 144.116 71.972C143.988 71.844 143.924 71.688 143.924 71.504C143.924 71.32 143.988 71.16 144.116 71.024C144.244 70.896 144.404 70.832 144.596 70.832C144.788 70.832 144.948 70.896 145.076 71.024C145.204 71.16 145.268 71.32 145.268 71.504C145.268 71.688 145.204 71.844 145.076 71.972C144.948 72.108 144.788 72.176 144.596 72.176ZM144.14 60.632H145.04L146.612 62.384H145.58L144.608 61.304H144.56L143.588 62.384H142.568L144.14 60.632ZM154.37 69.584C153.714 69.584 153.158 69.428 152.702 69.116C152.254 68.804 151.922 68.4 151.706 67.904C151.49 67.4 151.382 66.864 151.382 66.296C151.382 65.728 151.49 65.196 151.706 64.7C151.922 64.196 152.254 63.788 152.702 63.476C153.158 63.164 153.714 63.008 154.37 63.008C155.186 63.008 155.826 63.244 156.29 63.716C156.762 64.188 157.046 64.768 157.142 65.456H156.134C156.062 64.992 155.878 64.616 155.582 64.328C155.286 64.032 154.886 63.884 154.382 63.884C153.742 63.884 153.254 64.116 152.918 64.58C152.59 65.036 152.426 65.608 152.426 66.296C152.426 66.984 152.59 67.56 152.918 68.024C153.254 68.48 153.742 68.708 154.382 68.708C154.886 68.708 155.286 68.564 155.582 68.276C155.878 67.988 156.062 67.608 156.134 67.136H157.142C157.046 67.824 156.762 68.404 156.29 68.876C155.826 69.348 155.186 69.584 154.37 69.584ZM161.26 69.584C160.62 69.584 160.076 69.432 159.628 69.128C159.188 68.816 158.856 68.412 158.632 67.916C158.408 67.412 158.296 66.872 158.296 66.296C158.296 65.72 158.408 65.184 158.632 64.688C158.856 64.184 159.188 63.78 159.628 63.476C160.076 63.164 160.62 63.008 161.26 63.008C161.9 63.008 162.44 63.164 162.88 63.476C163.328 63.78 163.66 64.184 163.876 64.688C164.1 65.192 164.212 65.728 164.212 66.296C164.212 66.864 164.1 67.4 163.876 67.904C163.652 68.408 163.316 68.816 162.868 69.128C162.428 69.432 161.892 69.584 161.26 69.584ZM161.26 68.696C161.652 68.696 161.992 68.588 162.28 68.372C162.576 68.156 162.8 67.868 162.952 67.508C163.104 67.14 163.18 66.732 163.18 66.284C163.18 65.596 163.008 65.024 162.664 64.568C162.32 64.112 161.852 63.884 161.26 63.884C160.86 63.884 160.512 63.992 160.216 64.208C159.928 64.424 159.708 64.716 159.556 65.084C159.404 65.444 159.328 65.844 159.328 66.284C159.328 66.972 159.5 67.548 159.844 68.012C160.188 68.468 160.66 68.696 161.26 68.696ZM159.364 60.176H160.456L161.644 62.324H160.804L159.364 60.176ZM165.72 63.176H166.752V64.316H166.848C167.008 63.948 167.268 63.64 167.628 63.392C167.988 63.136 168.428 63.008 168.948 63.008C169.484 63.008 169.932 63.136 170.292 63.392C170.652 63.64 170.916 63.972 171.084 64.388C171.26 64.796 171.348 65.24 171.348 65.72V69.5H170.316V65.852C170.316 65.228 170.152 64.752 169.824 64.424C169.504 64.096 169.084 63.932 168.564 63.932C168.012 63.932 167.572 64.112 167.244 64.472C166.916 64.824 166.752 65.284 166.752 65.852V69.5H165.72V63.176ZM175.918 63.176H176.95V69.5H175.918V63.176ZM176.05 62.324L177.226 60.176H178.33L176.878 62.324H176.05ZM180.526 64.004V67.676C180.526 67.972 180.538 68.192 180.562 68.336C180.594 68.472 180.67 68.58 180.79 68.66C180.918 68.74 181.122 68.78 181.402 68.78C181.594 68.78 181.802 68.752 182.026 68.696V69.44C181.97 69.464 181.846 69.488 181.654 69.512C181.47 69.536 181.278 69.548 181.078 69.548C180.614 69.548 180.266 69.484 180.034 69.356C179.81 69.22 179.662 69.04 179.59 68.816C179.526 68.584 179.494 68.28 179.494 67.904V64.004H178.318V63.176H179.494V61.1H180.526V63.176H182.026V64.004H180.526Z" fill="#525557"/>
<rect x="259.25" y="0.25" width="23.5" height="18.5" rx="1.75" fill="#E37C2B" stroke="#525557" stroke-width="0.5"/>
<path d="M299.876 7.1H300.908V10.82H300.968L304.304 7.1H305.564L302.252 10.712L305.816 15.5H304.604L301.616 11.468L300.908 12.224V15.5H299.876V7.1ZM309.572 15.584C308.924 15.584 308.376 15.428 307.928 15.116C307.488 14.804 307.16 14.396 306.944 13.892C306.728 13.388 306.62 12.856 306.62 12.296C306.62 11.728 306.728 11.196 306.944 10.7C307.16 10.196 307.492 9.788 307.94 9.476C308.388 9.164 308.936 9.008 309.584 9.008C310.432 9.008 311.108 9.292 311.612 9.86C312.124 10.428 312.38 11.244 312.38 12.308V12.596H307.652V12.68C307.652 13.032 307.732 13.364 307.892 13.676C308.052 13.988 308.276 14.24 308.564 14.432C308.852 14.624 309.184 14.72 309.56 14.72C309.968 14.72 310.32 14.616 310.616 14.408C310.912 14.2 311.132 13.92 311.276 13.568H312.296C312.128 14.144 311.812 14.624 311.348 15.008C310.892 15.392 310.3 15.584 309.572 15.584ZM311.36 11.864C311.328 11.144 311.152 10.624 310.832 10.304C310.512 9.984 310.092 9.824 309.572 9.824C309.004 9.824 308.552 10.012 308.216 10.388C307.88 10.764 307.7 11.256 307.676 11.864H311.36ZM309.596 18.176C309.404 18.176 309.244 18.108 309.116 17.972C308.988 17.844 308.924 17.688 308.924 17.504C308.924 17.32 308.988 17.16 309.116 17.024C309.244 16.896 309.404 16.832 309.596 16.832C309.788 16.832 309.948 16.896 310.076 17.024C310.204 17.16 310.268 17.32 310.268 17.504C310.268 17.688 310.204 17.844 310.076 17.972C309.948 18.108 309.788 18.176 309.596 18.176ZM309.14 6.632H310.04L311.612 8.384H310.58L309.608 7.304H309.56L308.588 8.384H307.568L309.14 6.632ZM323.186 8.204H322.298V15.5H321.266V14.204H321.17C320.978 14.588 320.706 14.916 320.354 15.188C320.01 15.452 319.562 15.584 319.01 15.584C318.45 15.584 317.97 15.44 317.57 15.152C317.178 14.864 316.878 14.472 316.67 13.976C316.462 13.48 316.358 12.92 316.358 12.296C316.358 11.664 316.462 11.1 316.67 10.604C316.878 10.108 317.182 9.72 317.582 9.44C317.982 9.152 318.466 9.008 319.034 9.008C319.594 9.008 320.046 9.144 320.39 9.416C320.742 9.68 321.002 9.992 321.17 10.352H321.266V8.204H319.43V7.484H321.266V6.5H322.298V7.484H323.186V8.204ZM319.322 14.696C319.946 14.696 320.422 14.468 320.75 14.012C321.078 13.548 321.242 12.976 321.242 12.296C321.242 11.616 321.078 11.048 320.75 10.592C320.422 10.136 319.946 9.908 319.322 9.908C318.69 9.908 318.214 10.136 317.894 10.592C317.574 11.048 317.414 11.616 317.414 12.296C317.414 12.984 317.574 13.556 317.894 14.012C318.222 14.468 318.698 14.696 319.322 14.696ZM326.45 15.584C325.89 15.584 325.41 15.44 325.01 15.152C324.618 14.864 324.318 14.472 324.11 13.976C323.902 13.48 323.798 12.92 323.798 12.296C323.798 11.672 323.902 11.112 324.11 10.616C324.326 10.112 324.634 9.72 325.034 9.44C325.442 9.152 325.926 9.008 326.486 9.008C327.046 9.008 327.498 9.14 327.842 9.404C328.186 9.668 328.446 9.984 328.622 10.352H328.706V9.176H329.75V15.5H328.706V14.204H328.622C328.43 14.58 328.158 14.904 327.806 15.176C327.454 15.448 327.002 15.584 326.45 15.584ZM326.774 14.696C327.39 14.696 327.862 14.468 328.19 14.012C328.518 13.548 328.682 12.976 328.682 12.296C328.682 11.616 328.518 11.048 328.19 10.592C327.862 10.128 327.39 9.896 326.774 9.896C326.142 9.896 325.662 10.124 325.334 10.58C325.014 11.036 324.854 11.604 324.854 12.284C324.854 12.972 325.014 13.548 325.334 14.012C325.662 14.468 326.142 14.696 326.774 14.696ZM326.462 6.632H327.362L328.934 8.384H327.902L326.93 7.304H326.882L325.91 8.384H324.89L326.462 6.632ZM326.942 4.736H328.034L329.222 6.884H328.382L326.942 4.736ZM333.881 16.376C333.753 16.68 333.629 16.928 333.509 17.12C333.397 17.32 333.209 17.508 332.945 17.684C332.681 17.86 332.337 17.948 331.913 17.948C331.689 17.948 331.449 17.916 331.193 17.852V17.084C331.385 17.116 331.553 17.132 331.697 17.132C331.961 17.132 332.173 17.08 332.333 16.976C332.493 16.88 332.617 16.752 332.705 16.592C332.801 16.432 332.913 16.2 333.041 15.896L333.329 15.188L330.989 9.176H332.069L333.833 14.048H333.905L335.753 9.176H336.833L333.881 16.376ZM345.264 14.576V15.5H341.004V14.576H342.708V8.336H342.66L340.98 9.92V8.684L342.66 7.1H343.68V14.576H345.264ZM349.435 9.176H350.467V10.316H350.563C350.723 9.948 350.983 9.64 351.343 9.392C351.703 9.136 352.143 9.008 352.663 9.008C353.199 9.008 353.647 9.136 354.007 9.392C354.367 9.64 354.631 9.972 354.799 10.388C354.975 10.796 355.063 11.24 355.063 11.72V15.5H354.031V11.852C354.031 11.228 353.867 10.752 353.539 10.424C353.219 10.096 352.799 9.932 352.279 9.932C351.727 9.932 351.287 10.112 350.959 10.472C350.631 10.824 350.467 11.284 350.467 11.852V15.5H349.435V9.176ZM363.599 8.072V8.504C363.599 8.952 363.479 9.268 363.239 9.452C362.999 9.636 362.703 9.728 362.351 9.728H362.291V15.5H361.247V14.3H361.175C361.007 14.668 360.747 14.98 360.395 15.236C360.051 15.484 359.627 15.608 359.123 15.608C358.595 15.608 358.155 15.48 357.803 15.224C357.451 14.968 357.191 14.636 357.023 14.228C356.863 13.82 356.783 13.376 356.783 12.896V9.176H357.815V12.764C357.815 13.38 357.971 13.856 358.283 14.192C358.595 14.52 359.003 14.684 359.507 14.684C360.035 14.684 360.455 14.508 360.767 14.156C361.087 13.796 361.247 13.332 361.247 12.764V9.176H362.135C362.367 9.176 362.531 9.128 362.627 9.032C362.731 8.936 362.783 8.724 362.783 8.396V8.072H363.599ZM358.931 8.324C358.955 8.252 358.995 8.188 359.051 8.132C359.107 8.076 359.207 7.996 359.351 7.892C359.535 7.756 359.667 7.64 359.747 7.544C359.835 7.448 359.879 7.328 359.879 7.184C359.879 7.056 359.839 6.948 359.759 6.86C359.679 6.772 359.551 6.728 359.375 6.728C359.223 6.728 359.103 6.764 359.015 6.836C358.927 6.908 358.875 7 358.859 7.112H358.067C358.107 6.832 358.231 6.596 358.439 6.404C358.655 6.204 358.963 6.104 359.363 6.104C359.763 6.104 360.071 6.2 360.287 6.392C360.511 6.584 360.623 6.832 360.623 7.136C360.623 7.336 360.575 7.5 360.479 7.628C360.391 7.756 360.263 7.88 360.095 8C359.919 8.128 359.819 8.236 359.795 8.324H358.931ZM366.493 15.584C365.933 15.584 365.453 15.44 365.053 15.152C364.661 14.864 364.361 14.472 364.153 13.976C363.945 13.48 363.841 12.92 363.841 12.296C363.841 11.672 363.945 11.112 364.153 10.616C364.369 10.112 364.677 9.72 365.077 9.44C365.485 9.152 365.969 9.008 366.529 9.008C367.089 9.008 367.541 9.14 367.885 9.404C368.229 9.668 368.489 9.984 368.665 10.352H368.749V9.176H369.793V15.5H368.749V14.204H368.665C368.473 14.58 368.201 14.904 367.849 15.176C367.497 15.448 367.045 15.584 366.493 15.584ZM366.817 14.696C367.433 14.696 367.905 14.468 368.233 14.012C368.561 13.548 368.725 12.976 368.725 12.296C368.725 11.616 368.561 11.048 368.233 10.592C367.905 10.128 367.433 9.896 366.817 9.896C366.185 9.896 365.705 10.124 365.377 10.58C365.057 11.036 364.897 11.604 364.897 12.284C364.897 12.972 365.057 13.548 365.377 14.012C365.705 14.468 366.185 14.696 366.817 14.696Z" fill="#525557"/>
<rect x="259.25" y="27.25" width="23.5" height="18.5" rx="1.75" fill="#C2122A" stroke="#525557" stroke-width="0.5"/>
<path d="M299.876 34.1H300.908V37.82H300.968L304.304 34.1H305.564L302.252 37.712L305.816 42.5H304.604L301.616 38.468L300.908 39.224V42.5H299.876V34.1ZM309.572 42.584C308.924 42.584 308.376 42.428 307.928 42.116C307.488 41.804 307.16 41.396 306.944 40.892C306.728 40.388 306.62 39.856 306.62 39.296C306.62 38.728 306.728 38.196 306.944 37.7C307.16 37.196 307.492 36.788 307.94 36.476C308.388 36.164 308.936 36.008 309.584 36.008C310.432 36.008 311.108 36.292 311.612 36.86C312.124 37.428 312.38 38.244 312.38 39.308V39.596H307.652V39.68C307.652 40.032 307.732 40.364 307.892 40.676C308.052 40.988 308.276 41.24 308.564 41.432C308.852 41.624 309.184 41.72 309.56 41.72C309.968 41.72 310.32 41.616 310.616 41.408C310.912 41.2 311.132 40.92 311.276 40.568H312.296C312.128 41.144 311.812 41.624 311.348 42.008C310.892 42.392 310.3 42.584 309.572 42.584ZM311.36 38.864C311.328 38.144 311.152 37.624 310.832 37.304C310.512 36.984 310.092 36.824 309.572 36.824C309.004 36.824 308.552 37.012 308.216 37.388C307.88 37.764 307.7 38.256 307.676 38.864H311.36ZM309.596 45.176C309.404 45.176 309.244 45.108 309.116 44.972C308.988 44.844 308.924 44.688 308.924 44.504C308.924 44.32 308.988 44.16 309.116 44.024C309.244 43.896 309.404 43.832 309.596 43.832C309.788 43.832 309.948 43.896 310.076 44.024C310.204 44.16 310.268 44.32 310.268 44.504C310.268 44.688 310.204 44.844 310.076 44.972C309.948 45.108 309.788 45.176 309.596 45.176ZM309.14 33.632H310.04L311.612 35.384H310.58L309.608 34.304H309.56L308.588 35.384H307.568L309.14 33.632ZM319.502 45.032C319.262 45.032 319.066 45.016 318.914 44.984C318.77 44.952 318.622 44.908 318.47 44.852V43.988C318.574 44.02 318.714 44.048 318.89 44.072C319.066 44.104 319.238 44.12 319.406 44.12C320.03 44.12 320.498 43.944 320.81 43.592C321.13 43.24 321.29 42.772 321.29 42.188V41.048H321.194C321.026 41.424 320.754 41.744 320.378 42.008C320.01 42.264 319.562 42.392 319.034 42.392C318.506 42.392 318.042 42.256 317.642 41.984C317.242 41.712 316.93 41.336 316.706 40.856C316.49 40.368 316.382 39.812 316.382 39.188C316.382 38.564 316.49 38.012 316.706 37.532C316.93 37.044 317.242 36.664 317.642 36.392C318.042 36.12 318.506 35.984 319.034 35.984C319.586 35.984 320.046 36.128 320.414 36.416C320.79 36.696 321.054 37.024 321.206 37.4H321.29V36.188H322.334V42.188C322.334 42.636 322.242 43.076 322.058 43.508C321.882 43.94 321.582 44.3 321.158 44.588C320.734 44.884 320.182 45.032 319.502 45.032ZM319.37 41.504C319.778 41.504 320.126 41.396 320.414 41.18C320.702 40.956 320.914 40.668 321.05 40.316C321.194 39.956 321.266 39.572 321.266 39.164C321.266 38.764 321.194 38.392 321.05 38.048C320.914 37.704 320.702 37.424 320.414 37.208C320.134 36.992 319.786 36.884 319.37 36.884C318.754 36.884 318.282 37.108 317.954 37.556C317.634 37.996 317.474 38.532 317.474 39.164C317.474 39.58 317.542 39.968 317.678 40.328C317.822 40.68 318.034 40.964 318.314 41.18C318.602 41.396 318.954 41.504 319.37 41.504ZM326.532 42.584C325.972 42.584 325.492 42.44 325.092 42.152C324.7 41.864 324.4 41.472 324.192 40.976C323.984 40.48 323.88 39.92 323.88 39.296C323.88 38.672 323.984 38.112 324.192 37.616C324.408 37.112 324.716 36.72 325.116 36.44C325.524 36.152 326.008 36.008 326.568 36.008C327.128 36.008 327.58 36.14 327.924 36.404C328.268 36.668 328.528 36.984 328.704 37.352H328.788V36.176H329.832V42.5H328.788V41.204H328.704C328.512 41.58 328.24 41.904 327.888 42.176C327.536 42.448 327.084 42.584 326.532 42.584ZM326.856 41.696C327.472 41.696 327.944 41.468 328.272 41.012C328.6 40.548 328.764 39.976 328.764 39.296C328.764 38.616 328.6 38.048 328.272 37.592C327.944 37.128 327.472 36.896 326.856 36.896C326.224 36.896 325.744 37.124 325.416 37.58C325.096 38.036 324.936 38.604 324.936 39.284C324.936 39.972 325.096 40.548 325.416 41.012C325.744 41.468 326.224 41.696 326.856 41.696ZM326.544 33.632H327.444L329.016 35.384H327.984L327.012 34.304H326.964L325.992 35.384H324.972L326.544 33.632ZM327.024 31.736H328.116L329.304 33.884H328.464L327.024 31.736ZM331.658 36.176H332.69V37.316H332.786C332.946 36.948 333.206 36.64 333.566 36.392C333.926 36.136 334.366 36.008 334.886 36.008C335.422 36.008 335.87 36.136 336.23 36.392C336.59 36.64 336.854 36.972 337.022 37.388C337.198 37.796 337.286 38.24 337.286 38.72V42.5H336.254V38.852C336.254 38.228 336.09 37.752 335.762 37.424C335.442 37.096 335.022 36.932 334.502 36.932C333.95 36.932 333.51 37.112 333.182 37.472C332.854 37.824 332.69 38.284 332.69 38.852V42.5H331.658V36.176ZM348.287 35.204H347.399V42.5H346.367V41.204H346.271C346.079 41.588 345.807 41.916 345.455 42.188C345.111 42.452 344.663 42.584 344.111 42.584C343.551 42.584 343.071 42.44 342.671 42.152C342.279 41.864 341.979 41.472 341.771 40.976C341.563 40.48 341.459 39.92 341.459 39.296C341.459 38.664 341.563 38.1 341.771 37.604C341.979 37.108 342.283 36.72 342.683 36.44C343.083 36.152 343.567 36.008 344.135 36.008C344.695 36.008 345.147 36.144 345.491 36.416C345.843 36.68 346.103 36.992 346.271 37.352H346.367V35.204H344.531V34.484H346.367V33.5H347.399V34.484H348.287V35.204ZM344.423 41.696C345.047 41.696 345.523 41.468 345.851 41.012C346.179 40.548 346.343 39.976 346.343 39.296C346.343 38.616 346.179 38.048 345.851 37.592C345.523 37.136 345.047 36.908 344.423 36.908C343.791 36.908 343.315 37.136 342.995 37.592C342.675 38.048 342.515 38.616 342.515 39.296C342.515 39.984 342.675 40.556 342.995 41.012C343.323 41.468 343.799 41.696 344.423 41.696ZM351.552 42.584C350.992 42.584 350.512 42.44 350.112 42.152C349.72 41.864 349.42 41.472 349.212 40.976C349.004 40.48 348.9 39.92 348.9 39.296C348.9 38.672 349.004 38.112 349.212 37.616C349.428 37.112 349.736 36.72 350.136 36.44C350.544 36.152 351.028 36.008 351.588 36.008C352.148 36.008 352.6 36.14 352.944 36.404C353.288 36.668 353.548 36.984 353.724 37.352H353.808V36.176H354.852V42.5H353.808V41.204H353.724C353.532 41.58 353.26 41.904 352.908 42.176C352.556 42.448 352.104 42.584 351.552 42.584ZM351.876 41.696C352.492 41.696 352.964 41.468 353.292 41.012C353.62 40.548 353.784 39.976 353.784 39.296C353.784 38.616 353.62 38.048 353.292 37.592C352.964 37.128 352.492 36.896 351.876 36.896C351.244 36.896 350.764 37.124 350.436 37.58C350.116 38.036 349.956 38.604 349.956 39.284C349.956 39.972 350.116 40.548 350.436 41.012C350.764 41.468 351.244 41.696 351.876 41.696ZM351.564 33.632H352.464L354.036 35.384H353.004L352.032 34.304H351.984L351.012 35.384H349.992L351.564 33.632ZM352.044 31.736H353.136L354.324 33.884H353.484L352.044 31.736ZM358.982 43.376C358.854 43.68 358.73 43.928 358.61 44.12C358.498 44.32 358.31 44.508 358.046 44.684C357.782 44.86 357.438 44.948 357.014 44.948C356.79 44.948 356.55 44.916 356.294 44.852V44.084C356.486 44.116 356.654 44.132 356.798 44.132C357.062 44.132 357.274 44.08 357.434 43.976C357.594 43.88 357.718 43.752 357.806 43.592C357.902 43.432 358.014 43.2 358.142 42.896L358.43 42.188L356.09 36.176H357.17L358.934 41.048H359.006L360.854 36.176H361.934L358.982 43.376Z" fill="#525557"/>
<rect x="259.25" y="54.25" width="23.5" height="18.5" rx="1.75" fill="#525557" stroke="#525557" stroke-width="0.5"/>
<path d="M299.876 61.1H300.908V64.82H300.968L304.304 61.1H305.564L302.252 64.712L305.816 69.5H304.604L301.616 65.468L300.908 66.224V69.5H299.876V61.1ZM309.572 69.584C308.924 69.584 308.376 69.428 307.928 69.116C307.488 68.804 307.16 68.396 306.944 67.892C306.728 67.388 306.62 66.856 306.62 66.296C306.62 65.728 306.728 65.196 306.944 64.7C307.16 64.196 307.492 63.788 307.94 63.476C308.388 63.164 308.936 63.008 309.584 63.008C310.432 63.008 311.108 63.292 311.612 63.86C312.124 64.428 312.38 65.244 312.38 66.308V66.596H307.652V66.68C307.652 67.032 307.732 67.364 307.892 67.676C308.052 67.988 308.276 68.24 308.564 68.432C308.852 68.624 309.184 68.72 309.56 68.72C309.968 68.72 310.32 68.616 310.616 68.408C310.912 68.2 311.132 67.92 311.276 67.568H312.296C312.128 68.144 311.812 68.624 311.348 69.008C310.892 69.392 310.3 69.584 309.572 69.584ZM311.36 65.864C311.328 65.144 311.152 64.624 310.832 64.304C310.512 63.984 310.092 63.824 309.572 63.824C309.004 63.824 308.552 64.012 308.216 64.388C307.88 64.764 307.7 65.256 307.676 65.864H311.36ZM309.596 72.176C309.404 72.176 309.244 72.108 309.116 71.972C308.988 71.844 308.924 71.688 308.924 71.504C308.924 71.32 308.988 71.16 309.116 71.024C309.244 70.896 309.404 70.832 309.596 70.832C309.788 70.832 309.948 70.896 310.076 71.024C310.204 71.16 310.268 71.32 310.268 71.504C310.268 71.688 310.204 71.844 310.076 71.972C309.948 72.108 309.788 72.176 309.596 72.176ZM309.14 60.632H310.04L311.612 62.384H310.58L309.608 61.304H309.56L308.588 62.384H307.568L309.14 60.632ZM323.186 62.204H322.298V69.5H321.266V68.204H321.17C320.978 68.588 320.706 68.916 320.354 69.188C320.01 69.452 319.562 69.584 319.01 69.584C318.45 69.584 317.97 69.44 317.57 69.152C317.178 68.864 316.878 68.472 316.67 67.976C316.462 67.48 316.358 66.92 316.358 66.296C316.358 65.664 316.462 65.1 316.67 64.604C316.878 64.108 317.182 63.72 317.582 63.44C317.982 63.152 318.466 63.008 319.034 63.008C319.594 63.008 320.046 63.144 320.39 63.416C320.742 63.68 321.002 63.992 321.17 64.352H321.266V62.204H319.43V61.484H321.266V60.5H322.298V61.484H323.186V62.204ZM319.322 68.696C319.946 68.696 320.422 68.468 320.75 68.012C321.078 67.548 321.242 66.976 321.242 66.296C321.242 65.616 321.078 65.048 320.75 64.592C320.422 64.136 319.946 63.908 319.322 63.908C318.69 63.908 318.214 64.136 317.894 64.592C317.574 65.048 317.414 65.616 317.414 66.296C317.414 66.984 317.574 67.556 317.894 68.012C318.222 68.468 318.698 68.696 319.322 68.696ZM326.45 69.584C325.89 69.584 325.41 69.44 325.01 69.152C324.618 68.864 324.318 68.472 324.11 67.976C323.902 67.48 323.798 66.92 323.798 66.296C323.798 65.672 323.902 65.112 324.11 64.616C324.326 64.112 324.634 63.72 325.034 63.44C325.442 63.152 325.926 63.008 326.486 63.008C327.046 63.008 327.498 63.14 327.842 63.404C328.186 63.668 328.446 63.984 328.622 64.352H328.706V63.176H329.75V69.5H328.706V68.204H328.622C328.43 68.58 328.158 68.904 327.806 69.176C327.454 69.448 327.002 69.584 326.45 69.584ZM326.774 68.696C327.39 68.696 327.862 68.468 328.19 68.012C328.518 67.548 328.682 66.976 328.682 66.296C328.682 65.616 328.518 65.048 328.19 64.592C327.862 64.128 327.39 63.896 326.774 63.896C326.142 63.896 325.662 64.124 325.334 64.58C325.014 65.036 324.854 65.604 324.854 66.284C324.854 66.972 325.014 67.548 325.334 68.012C325.662 68.468 326.142 68.696 326.774 68.696ZM326.462 60.632H327.362L328.934 62.384H327.902L326.93 61.304H326.882L325.91 62.384H324.89L326.462 60.632ZM326.942 58.736H328.034L329.222 60.884H328.382L326.942 58.736ZM333.881 70.376C333.753 70.68 333.629 70.928 333.509 71.12C333.397 71.32 333.209 71.508 332.945 71.684C332.681 71.86 332.337 71.948 331.913 71.948C331.689 71.948 331.449 71.916 331.193 71.852V71.084C331.385 71.116 331.553 71.132 331.697 71.132C331.961 71.132 332.173 71.08 332.333 70.976C332.493 70.88 332.617 70.752 332.705 70.592C332.801 70.432 332.913 70.2 333.041 69.896L333.329 69.188L330.989 63.176H332.069L333.833 68.048H333.905L335.753 63.176H336.833L333.881 70.376Z" fill="#525557"/>
</svg>
